<svg xmlns="http://www.w3.org/2000/svg" viewBox="0 0 176 124"><defs><style>.cls-1{fill:#282828;}</style></defs><g id="Layer_2" data-name="Layer 2"><g id="Layer_1-2" data-name="Layer 1"><g id="Layer_2-2" data-name="Layer 2"><path class="cls-1" d="M172.32233,19.36279a22.11482,22.11482,0,0,0-15.56-15.66119C143.0368,0,88,0,88,0S32.96332,0,19.23792,3.7016a22.11482,22.11482,0,0,0-15.56,15.66119C0,33.17731,0,62,0,62s0,28.82269,3.67773,42.63721a22.11474,22.11474,0,0,0,15.56,15.66119C32.96332,124,88,124,88,124s55.0368,0,68.76208-3.7016a22.11472,22.11472,0,0,0,15.56-15.66119C176,90.82269,176,62,176,62S176,33.17731,172.32233,19.36279ZM70,88.169V35.831l46,26.17Z"/></g></g></g></svg>